{"accessors" : [{"bufferView" : 0, "byteOffset" : 0, "componentType" : 5123, "count" : 393, "type" : "SCALAR", "max" : [392], "min" : [0]}, {"bufferView" : 1, "byteOffset" : 0, "componentType" : 5126, "count" : 393, "type" : "VEC3", "max" : [0.9999998807907104, 0.9999998807907104, 0.447312593460083], "min" : [-0.9999998807907104, -0.9999998807907104, 0.0008745938539505005], "name" : "POSITION"}, {"bufferView" : 1, "byteOffset" : 12, "componentType" : 5126, "count" : 393, "type" : "VEC3", "max" : [1.3538408438762417E-07, 0, 1.0000044107437134], "min" : [-1.3538407017676946E-07, 0, 1.0000044107437134], "name" : "NORMAL"}, {"bufferView" : 0, "byteOffset" : 788, "componentType" : 5123, "count" : 2400, "type" : "SCALAR", "max" : [2399], "min" : [0]}, {"bufferView" : 2, "byteOffset" : 0, "componentType" : 5126, "count" : 2400, "type" : "VEC3", "max" : [0.7418822646141052, 0.8653801083564758, 0.5521154403686523], "min" : [-0.7399792671203613, -0.7472164034843445, 0.004374593496322632], "name" : "POSITION"}, {"bufferView" : 2, "byteOffset" : 12, "componentType" : 5126, "count" : 2400, "type" : "VEC3", "max" : [1.0000044107437134, 1.0000044107437134, 1.3982947848489857E-06], "min" : [-1.0000044107437134, -1.0000044107437134, -1.3982947848489857E-06], "name" : "NORMAL"}, {"bufferView" : 0, "byteOffset" : 5588, "componentType" : 5123, "count" : 963, "type" : "SCALAR", "max" : [726], "min" : [0]}, {"bufferView" : 3, "byteOffset" : 0, "componentType" : 5126, "count" : 727, "type" : "VEC3", "max" : [0.7499998807907104, 0.6249998807907104, 0.26010891795158386], "min" : [-0.6249998807907104, -0.3749999403953552, 0.0008745938539505005], "name" : "POSITION"}, {"bufferView" : 0, "byteOffset" : 7516, "componentType" : 5123, "count" : 14295, "type" : "SCALAR", "max" : [14294], "min" : [0]}, {"bufferView" : 4, "byteOffset" : 0, "componentType" : 5126, "count" : 14295, "type" : "VEC3", "max" : [0.7606724500656128, 0.8749998807907104, 0.5556154251098633], "min" : [-0.7499998807907104, -0.7499998807907104, 0.0008745938539505005], "name" : "POSITION"}, {"bufferView" : 4, "byteOffset" : 12, "componentType" : 5126, "count" : 14295, "type" : "VEC3", "max" : [1.0000044107437134, 1.0000044107437134, 1.0000044107437134], "min" : [-1.0000044107437134, -1.0000044107437134, -1.0000044107437134], "name" : "NORMAL"}, {"bufferView" : 0, "byteOffset" : 36108, "componentType" : 5123, "count" : 1989, "type" : "SCALAR", "max" : [1539], "min" : [0]}, {"bufferView" : 5, "byteOffset" : 0, "componentType" : 5126, "count" : 1540, "type" : "VEC3", "max" : [0.7499998807907104, 0.7499998807907104, 0.4621192216873169], "min" : [-0.7499998807907104, -0.3749999403953552, 0.0008745938539505005], "name" : "POSITION"}, {"bufferView" : 0, "byteOffset" : 40088, "componentType" : 5123, "count" : 1431, "type" : "SCALAR", "max" : [1430], "min" : [0]}, {"bufferView" : 6, "byteOffset" : 0, "componentType" : 5126, "count" : 1431, "type" : "VEC3", "max" : [0.7499998807907104, 0.2499999701976776, 0.4621192216873169], "min" : [-0.7499998807907104, -0.7499998807907104, 0.0008745938539505005], "name" : "POSITION"}, {"bufferView" : 6, "byteOffset" : 12, "componentType" : 5126, "count" : 1431, "type" : "VEC3", "max" : [1.0000044107437134, 1.0000044107437134, 1.0226448239336605E-06], "min" : [-1.0000044107437134, -1.0000044107437134, -7.46507339499658E-07], "name" : "NORMAL"}], "asset" : {"generator" : "Aspose.3D 23.2", "version" : "2.0"}, "buffers" : [{"uri" : "data:application/octet-stream;base64,", "byteLength" : 522860}], "bufferViews" : [{"buffer" : 0, "byteOffset" : 0, "byteLength" : 42952, "target" : 34963}, {"buffer" : 0, "byteOffset" : 42956, "byteLength" : 9432, "byteStride" : 24, "target" : 34962}, {"buffer" : 0, "byteOffset" : 52392, "byteLength" : 57600, "byteStride" : 24, "target" : 34962}, {"buffer" : 0, "byteOffset" : 109996, "byteLength" : 11556, "byteStride" : 12, "target" : 34962}, {"buffer" : 0, "byteOffset" : 121556, "byteLength" : 343080, "byteStride" : 24, "target" : 34962}, {"buffer" : 0, "byteOffset" : 464640, "byteLength" : 23868, "byteStride" : 12, "target" : 34962}, {"buffer" : 0, "byteOffset" : 488512, "byteLength" : 34344, "byteStride" : 24, "target" : 34962}], "materials" : [{"name" : "Ground", "pbrMetallicRoughness" : {"baseColorFactor" : [0.2079162895679474, 0.2079162895679474, 0.2079162895679474, 1], "metallicFactor" : 0, "roughnessFactor" : 0}, "emissiveFactor" : [0.2079162895679474, 0.2079162895679474, 0.2079162895679474], "alphaMode" : "OPAQUE", "doubleSided" : false}, {"name" : "Glass", "pbrMetallicRoughness" : {"baseColorFactor" : [0.20504993200302124, 0.4877557158470154, 0.8000000715255737, 1], "metallicFactor" : 0, "roughnessFactor" : 0}, "emissiveFactor" : [0.20504993200302124, 0.4877557158470154, 0.8000000715255737], "alphaMode" : "OPAQUE", "doubleSided" : false}, {"name" : "Yellow", "pbrMetallicRoughness" : {"baseColorFactor" : [0.5277191400527954, 0.48156479001045227, 0.07564004510641098, 1], "metallicFactor" : 0, "roughnessFactor" : 0}, "emissiveFactor" : [0.5277191400527954, 0.48156479001045227, 0.07564004510641098], "alphaMode" : "OPAQUE", "doubleSided" : false}, {"name" : "GreyLight", "pbrMetallicRoughness" : {"baseColorFactor" : [0.800000011920929, 0.800000011920929, 0.800000011920929, 1], "metallicFactor" : 0, "roughnessFactor" : 0}, "emissiveFactor" : [0.800000011920929, 0.800000011920929, 0.800000011920929], "alphaMode" : "OPAQUE", "doubleSided" : false}, {"name" : "Pink", "pbrMetallicRoughness" : {"baseColorFactor" : [0.8000000715255737, 0.36473289132118225, 0.410144180059433, 1], "metallicFactor" : 0, "roughnessFactor" : 0}, "emissiveFactor" : [0.8000000715255737, 0.36473289132118225, 0.410144180059433], "alphaMode" : "OPAQUE", "doubleSided" : false}, {"name" : "Orange", "pbrMetallicRoughness" : {"baseColorFactor" : [0.8000000715255737, 0.19383645057678223, 0.08020754158496857, 1], "metallicFactor" : 0, "roughnessFactor" : 0}, "emissiveFactor" : [0.8000000715255737, 0.19383645057678223, 0.08020754158496857], "alphaMode" : "OPAQUE", "doubleSided" : false}], "meshes" : [{"primitives" : [{"attributes" : {"POSITION" : 1, "NORMAL" : 2}, "indices" : 0, "material" : 0, "mode" : 4}, {"attributes" : {"POSITION" : 4, "NORMAL" : 5}, "indices" : 3, "material" : 1, "mode" : 4}, {"attributes" : {"POSITION" : 7}, "indices" : 6, "material" : 2, "mode" : 4}, {"attributes" : {"POSITION" : 9, "NORMAL" : 10}, "indices" : 8, "material" : 3, "mode" : 4}, {"attributes" : {"POSITION" : 12}, "indices" : 11, "material" : 4, "mode" : 4}, {"attributes" : {"POSITION" : 14, "NORMAL" : 15}, "indices" : 13, "material" : 5, "mode" : 4}], "name" : "Plane"}], "nodes" : [{"matrix" : [210.00001525878906, 0, 0, 0, 0, -3.4213345192027305E-05, -210.00001525878628, 0, 0, 210.00001525878628, -3.4213345192027305E-05, 0, 0, 0, 0, 1], "mesh" : 0, "name" : "City"}], "scene" : 0, "scenes" : [{"nodes" : [0]}]}