{"accessors" : [{"bufferView" : 0, "byteOffset" : 0, "componentType" : 5123, "count" : 1188, "type" : "SCALAR", "max" : [1045], "min" : [0]}, {"bufferView" : 1, "byteOffset" : 0, "componentType" : 5126, "count" : 1046, "type" : "VEC3", "max" : [173.4079132080078, 0, 196.5977325439453], "min" : [-154.40951538085938, 0, -150.3407440185547], "name" : "POSITION"}, {"bufferView" : 1, "byteOffset" : 12, "componentType" : 5126, "count" : 1046, "type" : "VEC3", "max" : [0, 1.0000044107437134, -0], "min" : [0, 1.0000042915344238, -0], "name" : "NORMAL"}], "asset" : {"generator" : "Aspose.3D 23.2", "version" : "2.0"}, "buffers" : [{"uri" : "data:application/octet-stream;base64,", "byteLength" : 30896}], "bufferViews" : [{"buffer" : 0, "byteOffset" : 0, "byteLength" : 2376, "target" : 34963}, {"buffer" : 0, "byteOffset" : 2380, "byteLength" : 28512, "byteStride" : 24, "target" : 34962}], "meshes" : [{"primitives" : [{"attributes" : {"POSITION" : 1, "NORMAL" : 2}, "indices" : 0, "mode" : 4}]}], "nodes" : [{"matrix" : [1, 0, 0, 0, 0, 1, 0, 0, 0, 0, 1, 0, 0, 0.20000000298023224, 0, 1], "mesh" : 0, "name" : "map_9.osm_buildings"}], "scene" : 0, "scenes" : [{"nodes" : [0]}]}