{"accessors" : [{"bufferView" : 0, "byteOffset" : 0, "componentType" : 5123, "count" : 36, "type" : "SCALAR", "max" : [29], "min" : [0]}, {"bufferView" : 1, "byteOffset" : 0, "componentType" : 5126, "count" : 30, "type" : "VEC3", "max" : [0.5, 2, 0.5], "min" : [-0.5, -2, -0.5], "name" : "POSITION"}, {"bufferView" : 1, "byteOffset" : 12, "componentType" : 5126, "count" : 30, "type" : "VEC3", "max" : [1.0000044107437134, 1.0000044107437134, 1.0000044107437134], "min" : [-1.0000044107437134, -1.0000044107437134, -1.0000044107437134], "name" : "NORMAL"}, {"bufferView" : 1, "byteOffset" : 24, "componentType" : 5126, "count" : 30, "type" : "VEC2", "max" : [1, -0], "min" : [0, -1], "name" : "TEXCOORD_0"}, {"bufferView" : 0, "byteOffset" : 72, "componentType" : 5123, "count" : 36, "type" : "SCALAR", "max" : [29], "min" : [0]}, {"bufferView" : 2, "byteOffset" : 0, "componentType" : 5126, "count" : 30, "type" : "VEC3", "max" : [0.5, 2, 0.5], "min" : [-0.5, -2, -0.5], "name" : "POSITION"}, {"bufferView" : 2, "byteOffset" : 12, "componentType" : 5126, "count" : 30, "type" : "VEC3", "max" : [1.0000044107437134, 1.0000044107437134, 1.0000044107437134], "min" : [-1.0000044107437134, -1.0000044107437134, -1.0000044107437134], "name" : "NORMAL"}, {"bufferView" : 2, "byteOffset" : 24, "componentType" : 5126, "count" : 30, "type" : "VEC2", "max" : [1, -0], "min" : [0, -1], "name" : "TEXCOORD_0"}, {"bufferView" : 0, "byteOffset" : 144, "componentType" : 5123, "count" : 36, "type" : "SCALAR", "max" : [29], "min" : [0]}, {"bufferView" : 3, "byteOffset" : 0, "componentType" : 5126, "count" : 30, "type" : "VEC3", "max" : [0.5, 2, 0.5], "min" : [-0.5, -2, -0.5], "name" : "POSITION"}, {"bufferView" : 3, "byteOffset" : 12, "componentType" : 5126, "count" : 30, "type" : "VEC3", "max" : [1.0000044107437134, 1.0000044107437134, 1.0000044107437134], "min" : [-1.0000044107437134, -1.0000044107437134, -1.0000044107437134], "name" : "NORMAL"}, {"bufferView" : 3, "byteOffset" : 24, "componentType" : 5126, "count" : 30, "type" : "VEC2", "max" : [1, -0], "min" : [0, -1], "name" : "TEXCOORD_0"}, {"bufferView" : 0, "byteOffset" : 216, "componentType" : 5123, "count" : 120, "type" : "SCALAR", "max" : [100], "min" : [0]}, {"bufferView" : 4, "byteOffset" : 0, "componentType" : 5126, "count" : 101, "type" : "VEC3", "max" : [1, 0.5, 3.5], "min" : [-1, -1.893223524093628, -4.576296806335449], "name" : "POSITION"}, {"bufferView" : 4, "byteOffset" : 12, "componentType" : 5126, "count" : 101, "type" : "VEC3", "max" : [1.0000044107437134, 1.0000044107437134, 1.0000044107437134], "min" : [-1.0000044107437134, -1.0000044107437134, -1.0000044107437134], "name" : "NORMAL"}, {"bufferView" : 4, "byteOffset" : 24, "componentType" : 5126, "count" : 101, "type" : "VEC2", "max" : [1, -0], "min" : [0, -1], "name" : "TEXCOORD_0"}, {"bufferView" : 0, "byteOffset" : 456, "componentType" : 5123, "count" : 108, "type" : "SCALAR", "max" : [89], "min" : [0]}, {"bufferView" : 5, "byteOffset" : 0, "componentType" : 5126, "count" : 90, "type" : "VEC3", "max" : [5, 0.5, 3.370126962661743], "min" : [-5, -0.5, -2.5], "name" : "POSITION"}, {"bufferView" : 5, "byteOffset" : 12, "componentType" : 5126, "count" : 90, "type" : "VEC3", "max" : [1.0000044107437134, 1.0000044107437134, 0.9670586585998535], "min" : [-1.0000044107437134, -1.0000044107437134, -1.0000044107437134], "name" : "NORMAL"}, {"bufferView" : 5, "byteOffset" : 24, "componentType" : 5126, "count" : 90, "type" : "VEC2", "max" : [1, -0], "min" : [0, -1], "name" : "TEXCOORD_0"}, {"bufferView" : 0, "byteOffset" : 672, "componentType" : 5123, "count" : 2964, "type" : "SCALAR", "max" : [2482], "min" : [0]}, {"bufferView" : 6, "byteOffset" : 0, "componentType" : 5126, "count" : 2483, "type" : "VEC3", "max" : [0.9926999807357788, 3, 1], "min" : [-0.9926999807357788, -3, -0.9708999991416931], "name" : "POSITION"}, {"bufferView" : 6, "byteOffset" : 12, "componentType" : 5126, "count" : 2483, "type" : "VEC3", "max" : [0.992720901966095, 1.0000044107437134, 1.0000044107437134], "min" : [-0.992720901966095, -1.0000044107437134, -0.9709521532058716], "name" : "NORMAL"}, {"bufferView" : 6, "byteOffset" : 24, "componentType" : 5126, "count" : 2483, "type" : "VEC2", "max" : [1, 5.551115123125783E-17], "min" : [-5.551115123125783E-17, -1], "name" : "TEXCOORD_0"}, {"bufferView" : 0, "byteOffset" : 6600, "componentType" : 5123, "count" : 36, "type" : "SCALAR", "max" : [29], "min" : [0]}, {"bufferView" : 7, "byteOffset" : 0, "componentType" : 5126, "count" : 30, "type" : "VEC3", "max" : [20, 0.5, 6], "min" : [-20, -0.5, -6], "name" : "POSITION"}, {"bufferView" : 7, "byteOffset" : 12, "componentType" : 5126, "count" : 30, "type" : "VEC3", "max" : [1.0000044107437134, 1.0000044107437134, 1.0000044107437134], "min" : [-1.0000044107437134, -1.0000044107437134, -1.0000044107437134], "name" : "NORMAL"}, {"bufferView" : 7, "byteOffset" : 24, "componentType" : 5126, "count" : 30, "type" : "VEC2", "max" : [1, -0], "min" : [0, -1], "name" : "TEXCOORD_0"}, {"bufferView" : 0, "byteOffset" : 6672, "componentType" : 5123, "count" : 108, "type" : "SCALAR", "max" : [89], "min" : [0]}, {"bufferView" : 8, "byteOffset" : 0, "componentType" : 5126, "count" : 90, "type" : "VEC3", "max" : [1.5, 0.681681752204895, 1.5], "min" : [-1.5000927448272705, -0.5, -4.036444664001465], "name" : "POSITION"}, {"bufferView" : 8, "byteOffset" : 12, "componentType" : 5126, "count" : 90, "type" : "VEC3", "max" : [1.0000044107437134, 0.9670586585998535, 1.0000044107437134], "min" : [-1.0000044107437134, -1.0000044107437134, -1.0000044107437134], "name" : "NORMAL"}, {"bufferView" : 8, "byteOffset" : 24, "componentType" : 5126, "count" : 90, "type" : "VEC2", "max" : [1, -0], "min" : [0, -1], "name" : "TEXCOORD_0"}, {"bufferView" : 0, "byteOffset" : 6888, "componentType" : 5123, "count" : 156, "type" : "SCALAR", "max" : [129], "min" : [0]}, {"bufferView" : 9, "byteOffset" : 0, "componentType" : 5126, "count" : 130, "type" : "VEC3", "max" : [5, 2.588496446609497, 0.9469655752182007], "min" : [-5, -1.5, -0.5], "name" : "POSITION"}, {"bufferView" : 9, "byteOffset" : 12, "componentType" : 5126, "count" : 130, "type" : "VEC3", "max" : [1.0000044107437134, 1.0000044107437134, 1.0000044107437134], "min" : [-1.0000044107437134, -1.0000044107437134, -1.0000044107437134], "name" : "NORMAL"}, {"bufferView" : 9, "byteOffset" : 24, "componentType" : 5126, "count" : 130, "type" : "VEC2", "max" : [1, -0], "min" : [0, -1], "name" : "TEXCOORD_0"}, {"bufferView" : 0, "byteOffset" : 7200, "componentType" : 5123, "count" : 36, "type" : "SCALAR", "max" : [29], "min" : [0]}, {"bufferView" : 10, "byteOffset" : 0, "componentType" : 5126, "count" : 30, "type" : "VEC3", "max" : [0.5, 2, 0.5], "min" : [-0.5, -2, -0.5], "name" : "POSITION"}, {"bufferView" : 10, "byteOffset" : 12, "componentType" : 5126, "count" : 30, "type" : "VEC3", "max" : [1.0000044107437134, 1.0000044107437134, 1.0000044107437134], "min" : [-1.0000044107437134, -1.0000044107437134, -1.0000044107437134], "name" : "NORMAL"}, {"bufferView" : 10, "byteOffset" : 24, "componentType" : 5126, "count" : 30, "type" : "VEC2", "max" : [1, -0], "min" : [0, -1], "name" : "TEXCOORD_0"}, {"bufferView" : 0, "byteOffset" : 7272, "componentType" : 5123, "count" : 6, "type" : "SCALAR", "max" : [4], "min" : [0]}, {"bufferView" : 11, "byteOffset" : 0, "componentType" : 5126, "count" : 5, "type" : "VEC3", "max" : [20, 1.2246467996456087E-15, 20], "min" : [-20, -1.2246467996456087E-15, -20], "name" : "POSITION"}, {"bufferView" : 11, "byteOffset" : 12, "componentType" : 5126, "count" : 5, "type" : "VEC3", "max" : [0, 1.0000044107437134, 6.123261394449931E-17], "min" : [0, 1.0000044107437134, 6.123261394449931E-17], "name" : "NORMAL"}, {"bufferView" : 11, "byteOffset" : 24, "componentType" : 5126, "count" : 5, "type" : "VEC2", "max" : [1, -0], "min" : [0, -1], "name" : "TEXCOORD_0"}, {"bufferView" : 0, "byteOffset" : 7284, "componentType" : 5123, "count" : 6, "type" : "SCALAR", "max" : [4], "min" : [0]}, {"bufferView" : 12, "byteOffset" : 0, "componentType" : 5126, "count" : 5, "type" : "VEC3", "max" : [20, 1.2246467996456087E-15, 20], "min" : [-20, -1.2246467996456087E-15, -20], "name" : "POSITION"}, {"bufferView" : 12, "byteOffset" : 12, "componentType" : 5126, "count" : 5, "type" : "VEC3", "max" : [0, 1.0000044107437134, 6.123261394449931E-17], "min" : [0, 1.0000044107437134, 6.123261394449931E-17], "name" : "NORMAL"}, {"bufferView" : 12, "byteOffset" : 24, "componentType" : 5126, "count" : 5, "type" : "VEC2", "max" : [1, -0], "min" : [0, -1], "name" : "TEXCOORD_0"}, {"bufferView" : 0, "byteOffset" : 7296, "componentType" : 5123, "count" : 3312, "type" : "SCALAR", "max" : [2783], "min" : [0]}, {"bufferView" : 13, "byteOffset" : 0, "componentType" : 5126, "count" : 2784, "type" : "VEC3", "max" : [1, 1, 1], "min" : [-1, -1, -1], "name" : "POSITION"}, {"bufferView" : 13, "byteOffset" : 12, "componentType" : 5126, "count" : 2784, "type" : "VEC3", "max" : [1.0000044107437134, 1.0000044107437134, 1.0000044107437134], "min" : [-1.0000044107437134, -1.0000044107437134, -1.0000044107437134], "name" : "NORMAL"}, {"bufferView" : 13, "byteOffset" : 24, "componentType" : 5126, "count" : 2784, "type" : "VEC2", "max" : [1, -7.632783294297951E-17], "min" : [7.632783294297951E-17, -1], "name" : "TEXCOORD_0"}, {"bufferView" : 0, "byteOffset" : 13920, "componentType" : 5123, "count" : 6, "type" : "SCALAR", "max" : [4], "min" : [0]}, {"bufferView" : 14, "byteOffset" : 0, "componentType" : 5126, "count" : 5, "type" : "VEC3", "max" : [20, 1.2246467996456087E-15, 20], "min" : [-20, -1.2246467996456087E-15, -20], "name" : "POSITION"}, {"bufferView" : 14, "byteOffset" : 12, "componentType" : 5126, "count" : 5, "type" : "VEC3", "max" : [0, 1.0000044107437134, 6.123261394449931E-17], "min" : [0, 1.0000044107437134, 6.123261394449931E-17], "name" : "NORMAL"}, {"bufferView" : 14, "byteOffset" : 24, "componentType" : 5126, "count" : 5, "type" : "VEC2", "max" : [1, -0], "min" : [0, -1], "name" : "TEXCOORD_0"}, {"bufferView" : 0, "byteOffset" : 13932, "componentType" : 5123, "count" : 2088, "type" : "SCALAR", "max" : [1751], "min" : [0]}, {"bufferView" : 15, "byteOffset" : 0, "componentType" : 5126, "count" : 1752, "type" : "VEC3", "max" : [0.7741124629974365, 8, 1.0024144649505615], "min" : [-0.8461040258407593, -8, -1.1961561441421509], "name" : "POSITION"}, {"bufferView" : 15, "byteOffset" : 12, "componentType" : 5126, "count" : 1752, "type" : "VEC3", "max" : [1.0000044107437134, 1.0000044107437134, 1.0000044107437134], "min" : [-1.0000044107437134, -1.0000044107437134, -1.0000044107437134], "name" : "NORMAL"}, {"bufferView" : 15, "byteOffset" : 24, "componentType" : 5126, "count" : 1752, "type" : "VEC2", "max" : [1, 2.7755575615628914E-17], "min" : [0, -1], "name" : "TEXCOORD_0"}], "asset" : {"generator" : "Aspose.3D 23.2", "version" : "2.0"}, "buffers" : [{"uri" : "data:application/octet-stream;base64,", "byteLength" : 307900}], "bufferViews" : [{"buffer" : 0, "byteOffset" : 0, "byteLength" : 18108, "target" : 34963}, {"buffer" : 0, "byteOffset" : 18112, "byteLength" : 1152, "byteStride" : 32, "target" : 34962}, {"buffer" : 0, "byteOffset" : 19268, "byteLength" : 1152, "byteStride" : 32, "target" : 34962}, {"buffer" : 0, "byteOffset" : 20424, "byteLength" : 1152, "byteStride" : 32, "target" : 34962}, {"buffer" : 0, "byteOffset" : 21580, "byteLength" : 3840, "byteStride" : 32, "target" : 34962}, {"buffer" : 0, "byteOffset" : 25424, "byteLength" : 3456, "byteStride" : 32, "target" : 34962}, {"buffer" : 0, "byteOffset" : 28884, "byteLength" : 94848, "byteStride" : 32, "target" : 34962}, {"buffer" : 0, "byteOffset" : 123736, "byteLength" : 1152, "byteStride" : 32, "target" : 34962}, {"buffer" : 0, "byteOffset" : 124892, "byteLength" : 3456, "byteStride" : 32, "target" : 34962}, {"buffer" : 0, "byteOffset" : 128352, "byteLength" : 4992, "byteStride" : 32, "target" : 34962}, {"buffer" : 0, "byteOffset" : 133348, "byteLength" : 1152, "byteStride" : 32, "target" : 34962}, {"buffer" : 0, "byteOffset" : 134504, "byteLength" : 192, "byteStride" : 32, "target" : 34962}, {"buffer" : 0, "byteOffset" : 134700, "byteLength" : 192, "byteStride" : 32, "target" : 34962}, {"buffer" : 0, "byteOffset" : 134896, "byteLength" : 105984, "byteStride" : 32, "target" : 34962}, {"buffer" : 0, "byteOffset" : 240884, "byteLength" : 192, "byteStride" : 32, "target" : 34962}, {"buffer" : 0, "byteOffset" : 241080, "byteLength" : 66816, "byteStride" : 32, "target" : 34962}], "cameras" : [{"perspective" : {"aspectRatio" : 1.33333333333333, "yfov" : 0.7853981633974483, "zfar" : 50000, "znear" : 0.1}, "type" : "perspective", "name" : "TurnTableCamera-camera"}], "materials" : [{"name" : "229918", "pbrMetallicRoughness" : {"baseColorFactor" : [0.13333333333333333, 0.6, 0.09411764705882353, 1], "metallicFactor" : 0, "roughnessFactor" : 0}, "emissiveFactor" : [0, 0, 0], "alphaMode" : "OPAQUE", "doubleSided" : false}, {"name" : "229918", "pbrMetallicRoughness" : {"baseColorFactor" : [0.13333333333333333, 0.6, 0.09411764705882353, 1], "metallicFactor" : 0, "roughnessFactor" : 0}, "emissiveFactor" : [0, 0, 0], "alphaMode" : "OPAQUE", "doubleSided" : false}, {"name" : "229918", "pbrMetallicRoughness" : {"baseColorFactor" : [0.13333333333333333, 0.6, 0.09411764705882353, 1], "metallicFactor" : 0, "roughnessFactor" : 0}, "emissiveFactor" : [0, 0, 0], "alphaMode" : "OPAQUE", "doubleSided" : false}, {"name" : "c6c3c3", "pbrMetallicRoughness" : {"baseColorFactor" : [0.7764705882352941, 0.7647058823529411, 0.7647058823529411, 1], "metallicFactor" : 0, "roughnessFactor" : 0}, "emissiveFactor" : [0, 0, 0], "alphaMode" : "OPAQUE", "doubleSided" : false}, {"name" : "229918", "pbrMetallicRoughness" : {"baseColorFactor" : [0.13333333333333333, 0.6, 0.09411764705882353, 1], "metallicFactor" : 0, "roughnessFactor" : 0}, "emissiveFactor" : [0, 0, 0], "alphaMode" : "OPAQUE", "doubleSided" : false}, {"name" : "c6c3c3", "pbrMetallicRoughness" : {"baseColorFactor" : [0.7764705882352941, 0.7647058823529411, 0.7647058823529411, 1], "metallicFactor" : 0, "roughnessFactor" : 0}, "emissiveFactor" : [0, 0, 0], "alphaMode" : "OPAQUE", "doubleSided" : false}, {"name" : "898484", "pbrMetallicRoughness" : {"baseColorFactor" : [0.5372549019607843, 0.5176470588235295, 0.5176470588235295, 1], "metallicFactor" : 0, "roughnessFactor" : 0}, "emissiveFactor" : [0, 0, 0], "alphaMode" : "OPAQUE", "doubleSided" : false}, {"name" : "c6c3c3", "pbrMetallicRoughness" : {"baseColorFactor" : [0.7764705882352941, 0.7647058823529411, 0.7647058823529411, 1], "metallicFactor" : 0, "roughnessFactor" : 0}, "emissiveFactor" : [0, 0, 0], "alphaMode" : "OPAQUE", "doubleSided" : false}, {"name" : "229918", "pbrMetallicRoughness" : {"baseColorFactor" : [0.13333333333333333, 0.6, 0.09411764705882353, 1], "metallicFactor" : 0, "roughnessFactor" : 0}, "emissiveFactor" : [0, 0, 0], "alphaMode" : "OPAQUE", "doubleSided" : false}, {"name" : "229918", "pbrMetallicRoughness" : {"baseColorFactor" : [0.13333333333333333, 0.6, 0.09411764705882353, 1], "metallicFactor" : 0, "roughnessFactor" : 0}, "emissiveFactor" : [0, 0, 0], "alphaMode" : "OPAQUE", "doubleSided" : false}, {"name" : "1e1e1e", "pbrMetallicRoughness" : {"baseColorFactor" : [0.11764705882352941, 0.11764705882352941, 0.11764705882352941, 1], "metallicFactor" : 0, "roughnessFactor" : 0}, "emissiveFactor" : [0, 0, 0], "alphaMode" : "OPAQUE", "doubleSided" : false}, {"name" : "606060", "pbrMetallicRoughness" : {"baseColorFactor" : [0.3764705882352941, 0.3764705882352941, 0.3764705882352941, 1], "metallicFactor" : 0, "roughnessFactor" : 0}, "emissiveFactor" : [0, 0, 0], "alphaMode" : "OPAQUE", "doubleSided" : false}, {"name" : "b7c429", "pbrMetallicRoughness" : {"baseColorFactor" : [0.7176470588235294, 0.7686274509803922, 0.1607843137254902, 1], "metallicFactor" : 0, "roughnessFactor" : 0}, "emissiveFactor" : [0, 0, 0], "alphaMode" : "OPAQUE", "doubleSided" : false}, {"name" : "681414", "pbrMetallicRoughness" : {"baseColorFactor" : [0.40784313725490196, 0.0784313725490196, 0.0784313725490196, 1], "metallicFactor" : 0, "roughnessFactor" : 0}, "emissiveFactor" : [0, 0, 0], "alphaMode" : "OPAQUE", "doubleSided" : false}, {"name" : "ffffff", "pbrMetallicRoughness" : {"baseColorFactor" : [1, 1, 1, 1], "metallicFactor" : 0, "roughnessFactor" : 0}, "emissiveFactor" : [0, 0, 0], "alphaMode" : "OPAQUE", "doubleSided" : false}], "meshes" : [{"primitives" : [{"attributes" : {"POSITION" : 1, "NORMAL" : 2, "TEXCOORD_0" : 3}, "indices" : 0, "material" : 0, "mode" : 4}], "name" : "Box6-mesh"}, {"primitives" : [{"attributes" : {"POSITION" : 5, "NORMAL" : 6, "TEXCOORD_0" : 7}, "indices" : 4, "material" : 1, "mode" : 4}], "name" : "Box4-mesh"}, {"primitives" : [{"attributes" : {"POSITION" : 9, "NORMAL" : 10, "TEXCOORD_0" : 11}, "indices" : 8, "material" : 2, "mode" : 4}], "name" : "Box5-mesh"}, {"primitives" : [{"attributes" : {"POSITION" : 13, "NORMAL" : 14, "TEXCOORD_0" : 15}, "indices" : 12, "material" : 3, "mode" : 4}], "name" : "Box-mesh"}, {"primitives" : [{"attributes" : {"POSITION" : 17, "NORMAL" : 18, "TEXCOORD_0" : 19}, "indices" : 16, "material" : 4, "mode" : 4}], "name" : "Box3-mesh"}, {"primitives" : [{"attributes" : {"POSITION" : 21, "NORMAL" : 22, "TEXCOORD_0" : 23}, "indices" : 20, "material" : 5, "mode" : 4}], "name" : "Capsule1-mesh"}, {"primitives" : [{"attributes" : {"POSITION" : 25, "NORMAL" : 26, "TEXCOORD_0" : 27}, "indices" : 24, "material" : 6, "mode" : 4}], "name" : "Box2-mesh"}, {"primitives" : [{"attributes" : {"POSITION" : 29, "NORMAL" : 30, "TEXCOORD_0" : 31}, "indices" : 28, "material" : 7, "mode" : 4}], "name" : "Box1-mesh"}, {"primitives" : [{"attributes" : {"POSITION" : 33, "NORMAL" : 34, "TEXCOORD_0" : 35}, "indices" : 32, "material" : 8, "mode" : 4}], "name" : "Box8-mesh"}, {"primitives" : [{"attributes" : {"POSITION" : 37, "NORMAL" : 38, "TEXCOORD_0" : 39}, "indices" : 36, "material" : 9, "mode" : 4}], "name" : "Box7-mesh"}, {"primitives" : [{"attributes" : {"POSITION" : 41, "NORMAL" : 42, "TEXCOORD_0" : 43}, "indices" : 40, "material" : 10, "mode" : 4}], "name" : "Plane-mesh"}, {"primitives" : [{"attributes" : {"POSITION" : 45, "NORMAL" : 46, "TEXCOORD_0" : 47}, "indices" : 44, "material" : 11, "mode" : 4}], "name" : "Plane2-mesh"}, {"primitives" : [{"attributes" : {"POSITION" : 49, "NORMAL" : 50, "TEXCOORD_0" : 51}, "indices" : 48, "material" : 12, "mode" : 4}], "name" : "Sphere-mesh"}, {"primitives" : [{"attributes" : {"POSITION" : 53, "NORMAL" : 54, "TEXCOORD_0" : 55}, "indices" : 52, "material" : 13, "mode" : 4}], "name" : "Plane1-mesh"}, {"primitives" : [{"attributes" : {"POSITION" : 57, "NORMAL" : 58, "TEXCOORD_0" : 59}, "indices" : 56, "material" : 14, "mode" : 4}], "name" : "Capsule-mesh"}], "nodes" : [{"matrix" : [1, 0, 0, 0, 0, 1, 0, 0, 0, 0, 1, 0, 6.7119, 2.5492, -16.2824, 1], "mesh" : 0, "name" : "Box6"}, {"matrix" : [1, 0, 0, 0, 0, 1, 0, 0, 0, 0, 1, 0, 15.5933, 2.5492, -12.3646, 1], "mesh" : 1, "name" : "Box4"}, {"matrix" : [1, 0, 0, 0, 0, 1, 0, 0, 0, 0, 1, 0, 6.7119, 2.5492, -12.3646, 1], "mesh" : 2, "name" : "Box5"}, {"matrix" : [1, 0, 0, 0, 0, 1, 0, 0, 0, 0, 1, 0, -6.1203, 19.5092, -8.0975, 1], "mesh" : 3, "name" : "Box"}, {"matrix" : [1, 0, 0, 0, 0, 1, 0, 0, 0, 0, 1, 0, 11.2021, 4.7907, -14.3088, 1], "mesh" : 4, "name" : "Box3"}, {"matrix" : [1, 0, 0, 0, 0, 1, 0, 0, 0, 0, 1, 0, -6.1029, 16.7029, -10.3555, 1], "mesh" : 5, "name" : "Capsule1"}, {"matrix" : [1, 0, 0, 0, 0, 1, 0, 0, 0, 0, 1, 0, 0, 0.4605, -14.1405, 1], "mesh" : 6, "name" : "Box2"}, {"matrix" : [1, 0, 0, 0, 0, 1, 0, 0, 0, 0, 1, 0, -6.1203, 19.5092, -3.1962, 1], "mesh" : 7, "name" : "Box1"}, {"matrix" : [1, 0, 0, 0, 0, 0.9585720168226249, -0.284850291494682, 0, 0, 0.284850291494682, 0.9585720168226249, 0, 11.2593, 6.3361, -16.8502, 1], "mesh" : 8, "name" : "Box8"}, {"matrix" : [1, 0, 0, 0, 0, 1, 0, 0, 0, 0, 1, 0, 15.6851, 2.5492, -16.236, 1], "mesh" : 9, "name" : "Box7"}, {"camera" : 0, "matrix" : [-0.6725549830946135, -0.37460691082649694, -0.6382315074294227, 0, -0.27173019146777627, 0.9271837263245185, -0.25786244527628704, 0, 0.6883549213592431, 9.719103559628758E-08, -0.7253740429878234, 0, 21.344, 13.0694, 18.4168, 1], "name" : "TurnTableCamera"}, {"children" : [10], "matrix" : [1, 0, 0, 0, 0, 1, 0, 0, 0, 0, 1, 0, 0, 9.618290489912033, -0.07025003433227539, 1], "name" : "CameraPreset"}, {"matrix" : [1, 0, 0, 0, 0, 1, 0, 0, 0, 0, 1, 0, 0, -0.1419, 0, 1], "mesh" : 10, "name" : "Plane"}, {"matrix" : [0.026065265952528303, 3.179925309473054E-05, -0.9996602427323152, 0, 0.9993760369948446, -0.023844587947504693, 0.02605709703886103, 0, -0.023835657979230925, -0.9997156768873945, -0.0006532949379173687, 0, -19.7467, 10.1661, -0.9512, 1], "mesh" : 11, "name" : "Plane2"}, {"matrix" : [1, 0, 0, 0, 0, 1, 0, 0, 0, 0, 1, 0, -6.16, 18.9093, -3.2084, 1], "mesh" : 12, "name" : "Sphere"}, {"matrix" : [1, 0, 0, 0, 0, -0.021408318300723643, 0.9997708156910438, 0, 0, -0.9997708156910438, -0.021408318300723643, 0, 0, 10.1661, -19.6909, 1], "mesh" : 13, "name" : "Plane1"}, {"matrix" : [1, 0, 0, 0, 0, 1, 0, 0, 0, 0, 1, 0, -6.0775, 7.0457, -10.2908, 1], "mesh" : 14, "name" : "Capsule"}], "scene" : 0, "scenes" : [{"nodes" : [0, 1, 2, 3, 4, 5, 6, 7, 8, 9, 11, 12, 13, 14, 15, 16]}]}